<?xml version="1.0" standalone="no"?>
<!DOCTYPE svg PUBLIC "-//W3C//DTD SVG 20010904//EN"
 "http://www.w3.org/TR/2001/REC-SVG-20010904/DTD/svg10.dtd">
<svg version="1.0" xmlns="http://www.w3.org/2000/svg"
 width="512.000000pt" height="512.000000pt" viewBox="0 0 512.000000 512.000000"
 preserveAspectRatio="xMidYMid meet">
<metadata>
Created by potrace 1.11, written by Peter Selinger 2001-2013
</metadata>
<g transform="translate(0.000000,512.000000) scale(0.100000,-0.100000)"
fill="#000000" stroke="none">
<path d="M468 4980 c-223 -38 -408 -213 -453 -427 -22 -102 -22 -3884 0 -3986
39 -186 192 -351 380 -410 l70 -22 2095 0 c2001 0 2098 1 2155 18 200 61 359
235 394 431 15 83 15 3869 0 3952 -35 193 -188 364 -389 431 -53 17 -145 18
-2130 19 -1141 1 -2096 -2 -2122 -6z m4139 -219 c35 -5 83 -20 108 -32 57 -29
130 -105 158 -167 l22 -47 0 -1955 0 -1955 -22 -47 c-28 -62 -101 -138 -158
-167 -25 -12 -76 -27 -113 -32 -40 -6 -879 -8 -2092 -7 l-2025 3 -62 29 c-73
33 -144 103 -176 174 l-22 47 0 1955 0 1955 22 47 c46 101 153 183 258 198 73
11 4028 11 4102 1z"/>
<path d="M641 4426 c-51 -29 -50 -11 -51 -761 0 -777 -4 -732 66 -761 50 -21
3758 -21 3808 0 70 29 66 -16 66 759 0 758 1 740 -55 765 -40 19 -3801 17
-3834 -2z m3669 -761 l0 -555 -1750 0 -1750 0 0 555 0 555 1750 0 1750 0 0
-555z"/>
<path d="M1340 4149 c-163 -23 -303 -144 -352 -302 -30 -101 -23 -219 19 -308
100 -215 345 -314 561 -226 l60 24 69 -69 c82 -82 122 -99 176 -73 35 16 67
64 67 100 0 29 -28 69 -93 133 l-64 64 26 61 c22 54 26 76 26 167 0 100 -2
109 -36 181 -61 127 -188 228 -310 244 -86 11 -94 12 -149 4z m160 -241 c158
-80 156 -309 -3 -383 -69 -33 -120 -32 -188 3 -128 64 -159 223 -66 329 64 73
172 94 257 51z"/>
<path d="M654 2626 c-65 -29 -64 -22 -64 -432 0 -354 1 -372 20 -396 37 -47
52 -49 439 -46 l363 3 29 33 29 32 0 373 c0 408 1 400 -60 432 -41 21 -708 22
-756 1z m596 -431 l0 -225 -220 0 -220 0 0 225 0 225 220 0 220 0 0 -225z"/>
<path d="M1693 2516 c-57 -25 -81 -106 -46 -156 35 -51 3 -49 745 -50 l698 0
32 29 c28 25 33 36 33 75 0 38 -5 51 -33 78 l-32 33 -683 2 c-566 2 -687 0
-714 -11z"/>
<path d="M1664 2046 c-38 -38 -44 -77 -19 -126 33 -64 -44 -61 1259 -58 l1184
3 26 24 c51 48 51 125 1 169 l-26 22 -1196 0 -1195 0 -34 -34z"/>
<path d="M634 1562 c-43 -34 -44 -46 -44 -427 l0 -367 34 -34 34 -34 372 0
372 0 34 34 34 34 0 377 0 377 -29 29 -29 29 -379 0 c-343 0 -380 -2 -399 -18z
m616 -422 l0 -220 -220 0 -220 0 0 220 0 220 220 0 220 0 0 -220z"/>
<path d="M1664 1436 c-39 -39 -44 -77 -18 -127 30 -60 19 -59 750 -59 739 0
717 -2 748 65 20 41 20 58 1 95 -33 63 9 60 -753 60 l-694 0 -34 -34z"/>
<path d="M1695 1021 c-40 -17 -60 -51 -60 -102 0 -40 5 -54 28 -76 l27 -28
1188 -3 c856 -2 1195 1 1214 9 78 32 82 156 6 195 -23 12 -208 14 -1205 13
-648 0 -1187 -4 -1198 -8z"/>
</g>
</svg>
